<svg width="656" height="83" viewBox="0 0 656 83" fill="none" xmlns="http://www.w3.org/2000/svg">
<path d="M39.2656 60.4062V68H0.59375V4.01562H39.2656V11.6094H9.21875V31.6719H37.5781V39.0781H9.21875V60.4062H39.2656ZM90.125 60.3125V68H52.25V4.01562H60.875V60.3125H90.125ZM101.234 82.4844H93.4062L116.469 0.640625H124.297L101.234 82.4844ZM179.328 23.6094H170.797C170.547 21.5469 170 19.7031 169.156 18.0781C168.344 16.4219 167.266 15.0312 165.922 13.9062C164.609 12.75 163.062 11.875 161.281 11.2812C159.5 10.6562 157.531 10.3438 155.375 10.3438C150.031 10.3438 145.859 12.1562 142.859 15.7812C139.891 19.375 138.406 24.4062 138.406 30.875V40.2031C138.406 44.7344 139.047 48.6094 140.328 51.8281C141.641 55.0156 143.578 57.4531 146.141 59.1406C148.703 60.8281 151.859 61.6719 155.609 61.6719C158.703 61.6719 161.406 61.0938 163.719 59.9375C166.062 58.75 167.875 57.125 169.156 55.0625C170.469 52.9688 171.125 50.5781 171.125 47.8906V41.9375H154.906V34.5781H179.469V47.7031C179.469 50.7344 178.891 53.5781 177.734 56.2344C176.578 58.8594 174.938 61.1562 172.812 63.125C170.688 65.0625 168.156 66.5781 165.219 67.6719C162.312 68.7656 159.094 69.3125 155.562 69.3125C151.344 69.3125 147.625 68.6719 144.406 67.3906C141.219 66.0781 138.531 64.1719 136.344 61.6719C134.188 59.1719 132.547 56.125 131.422 52.5312C130.328 48.9375 129.781 44.8281 129.781 40.2031V30.8281C129.781 25.0156 130.797 20.0156 132.828 15.8281C134.859 11.6406 137.781 8.40625 141.594 6.125C145.438 3.84375 150.031 2.70312 155.375 2.70312C158.812 2.70312 161.953 3.21875 164.797 4.25C167.672 5.25 170.141 6.67188 172.203 8.51562C174.297 10.3594 175.953 12.5625 177.172 15.125C178.391 17.6875 179.109 20.5156 179.328 23.6094ZM215.797 61.625C220.609 61.625 224.453 60.1719 227.328 57.2656C230.203 54.3594 231.641 50.4531 231.641 45.5469V4.01562H240.219V46.6719C240.219 51.0781 239.25 55 237.312 58.4375C235.375 61.8438 232.578 64.5156 228.922 66.4531C225.266 68.3594 220.891 69.3125 215.797 69.3125C210.703 69.3125 206.328 68.3594 202.672 66.4531C199.016 64.5156 196.219 61.8438 194.281 58.4375C192.344 55 191.375 51.0781 191.375 46.6719V4.01562H199.906V45.5469C199.906 50.4844 201.344 54.4062 204.219 57.3125C207.125 60.1875 210.984 61.625 215.797 61.625ZM293.328 60.4062V68H254.656V4.01562H293.328V11.6094H263.281V31.6719H291.641V39.0781H263.281V60.4062H293.328ZM329.703 4.01562C334.453 4.01562 338.359 4.90625 341.422 6.6875C344.484 8.46875 346.75 10.8281 348.219 13.7656C349.688 16.6719 350.422 19.8125 350.422 23.1875C350.422 26.7188 349.812 29.6875 348.594 32.0938C347.406 34.4688 345.891 36.3906 344.047 37.8594C342.234 39.3281 340.406 40.3906 338.562 41.0469L351.594 68H341.75L329.984 42.6875H314.891V68H306.312V4.01562H329.703ZM314.891 35.2812H328.203C332.578 35.2812 335.891 34.2812 338.141 32.2812C340.391 30.25 341.516 27.375 341.516 23.6562C341.516 19.625 340.328 16.5938 337.953 14.5625C335.609 12.5312 332.469 11.5156 328.531 11.5156H314.891V35.2812ZM356.844 52.9531H365.281C365.375 54.6406 365.797 56.125 366.547 57.4062C367.297 58.6875 368.391 59.7031 369.828 60.4531C371.266 61.1719 373.016 61.5312 375.078 61.5312C378.578 61.5312 381.172 60.4844 382.859 58.3906C384.578 56.2656 385.438 53.0625 385.438 48.7812V4.01562H394.062V48.8281C394.062 55.4219 392.406 60.4844 389.094 64.0156C385.812 67.5469 381.156 69.3125 375.125 69.3125C372.344 69.3125 369.828 68.9062 367.578 68.0938C365.328 67.2812 363.406 66.1562 361.812 64.7188C360.219 63.25 358.984 61.5156 358.109 59.5156C357.266 57.4844 356.844 55.2969 356.844 52.9531ZM449.516 31.625C449.516 26.9062 448.75 22.9688 447.219 19.8125C445.719 16.6562 443.672 14.2969 441.078 12.7344C438.516 11.1406 435.609 10.3438 432.359 10.3438C429.141 10.3438 426.219 11.1406 423.594 12.7344C421 14.2969 418.953 16.6562 417.453 19.8125C415.953 22.9688 415.203 26.9062 415.203 31.625V40.9531C415.203 45.6719 415.953 49.5625 417.453 52.625C418.953 55.6875 421 57.9688 423.594 59.4688C426.219 60.9375 429.141 61.6719 432.359 61.6719C435.609 61.6719 438.516 60.9375 441.078 59.4688C443.672 57.9688 445.719 55.6875 447.219 52.625C448.75 49.5625 449.516 45.6719 449.516 40.9531V31.625ZM458.188 40.9531C458.188 46.9844 457.109 52.125 454.953 56.375C452.828 60.5938 449.812 63.8125 445.906 66.0312C442.031 68.2188 437.484 69.3125 432.266 69.3125C427.047 69.3125 422.5 68.2188 418.625 66.0312C414.781 63.8125 411.797 60.5938 409.672 56.375C407.578 52.125 406.531 46.9844 406.531 40.9531V31.6719C406.531 25.6094 407.594 20.4219 409.719 16.1094C411.875 11.7656 414.891 8.45312 418.766 6.17188C422.641 3.85938 427.203 2.70312 432.453 2.70312C437.672 2.70312 442.203 3.85938 446.047 6.17188C449.891 8.45312 452.875 11.7656 455 16.1094C457.125 20.4219 458.188 25.6094 458.188 31.6719V40.9531ZM494.516 61.625C499.328 61.625 503.172 60.1719 506.047 57.2656C508.922 54.3594 510.359 50.4531 510.359 45.5469V4.01562H518.938V46.6719C518.938 51.0781 517.969 55 516.031 58.4375C514.094 61.8438 511.297 64.5156 507.641 66.4531C503.984 68.3594 499.609 69.3125 494.516 69.3125C489.422 69.3125 485.047 68.3594 481.391 66.4531C477.734 64.5156 474.938 61.8438 473 58.4375C471.062 55 470.094 51.0781 470.094 46.6719V4.01562H478.625V45.5469C478.625 50.4844 480.062 54.4062 482.938 57.3125C485.844 60.1875 489.703 61.625 494.516 61.625ZM541.391 68H533.609V4.01562H542.047L562.953 52.625H563.188L584 4.01562H592.484V68H584.656V21.9219H584.375L566.562 62.375H559.484L541.672 21.9219H541.391V68ZM610.391 68H601.438L624.078 4.01562H633.078L655.719 68H646.625L640.297 49.0625H616.719L610.391 68ZM628.672 13.9062H628.391L618.969 42.1719H638.047L628.672 13.9062Z" fill="black"/>
</svg>
